{
  "accessors": [
    {
      "bufferView": 2,
      "componentType": 5126,
      "count": 3683,
      "max": [
        1.2995359897613525,
        19.95125389099121,
        21.045358657836914
      ],
      "min": [
        -1.2997360229492188,
        0.0,
        7.090827941894531
      ],
      "type": "VEC3"
    },
    {
      "bufferView": 2,
      "byteOffset": 44196,
      "componentType": 5126,
      "count": 3683,
      "type": "VEC3"
    },
    {
      "bufferView": 3,
      "componentType": 5126,
      "count": 3683,
      "type": "VEC4"
    },
    {
      "bufferView": 1,
      "componentType": 5126,
      "count": 3683,
      "type": "VEC2"
    },
    {
      "bufferView": 0,
      "componentType": 5125,
      "count": 15408,
      "type": "SCALAR"
    },
    {
      "bufferView": 2,
      "byteOffset": 88392,
      "componentType": 5126,
      "count": 1351,
      "max": [
        2.9423649311065674,
        22.179636001586914,
        16.407716751098633
      ],
      "min": [
        -2.942164897918701,
        0.0,
        -16.407516479492188
      ],
      "type": "VEC3"
    },
    {
      "bufferView": 2,
      "byteOffset": 104604,
      "componentType": 5126,
      "count": 1351,
      "type": "VEC3"
    },
    {
      "bufferView": 3,
      "byteOffset": 58928,
      "componentType": 5126,
      "count": 1351,
      "type": "VEC4"
    },
    {
      "bufferView": 1,
      "byteOffset": 29464,
      "componentType": 5126,
      "count": 1351,
      "type": "VEC2"
    },
    {
      "bufferView": 0,
      "byteOffset": 61632,
      "componentType": 5125,
      "count": 2676,
      "type": "SCALAR"
    },
    {
      "bufferView": 2,
      "byteOffset": 120816,
      "componentType": 5126,
      "count": 3683,
      "max": [
        1.299936056137085,
        19.95125389099121,
        21.045358657836914
      ],
      "min": [
        -1.2997360229492188,
        0.0,
        7.090826988220215
      ],
      "type": "VEC3"
    },
    {
      "bufferView": 2,
      "byteOffset": 165012,
      "componentType": 5126,
      "count": 3683,
      "type": "VEC3"
    },
    {
      "bufferView": 3,
      "byteOffset": 80544,
      "componentType": 5126,
      "count": 3683,
      "type": "VEC4"
    },
    {
      "bufferView": 1,
      "byteOffset": 40272,
      "componentType": 5126,
      "count": 3683,
      "type": "VEC2"
    },
    {
      "bufferView": 0,
      "byteOffset": 72336,
      "componentType": 5125,
      "count": 15408,
      "type": "SCALAR"
    }
  ],
  "asset": {
    "generator": "fab-model-conversion",
    "version": "2.0"
  },
  "bufferViews": [
    {
      "buffer": 0,
      "byteLength": 133968,
      "target": 34963
    },
    {
      "buffer": 0,
      "byteLength": 69736,
      "byteOffset": 133968,
      "byteStride": 8,
      "target": 34962
    },
    {
      "buffer": 0,
      "byteLength": 209208,
      "byteOffset": 203704,
      "byteStride": 12,
      "target": 34962
    },
    {
      "buffer": 0,
      "byteLength": 139472,
      "byteOffset": 412912,
      "byteStride": 16,
      "target": 34962
    }
  ],
  "buffers": [
    {
      "byteLength": 552384,
      "uri": "scene.bin"
    }
  ],
  "images": [
    {
      "uri": "textures/doors_baseColor.png"
    },
    {
      "uri": "textures/doors_metallicRoughness.jpeg"
    },
    {
      "uri": "textures/doors_emissive.jpeg"
    },
    {
      "uri": "textures/doors_normal.png"
    },
    {
      "uri": "textures/FRAME_baseColor.png"
    },
    {
      "uri": "textures/FRAME_metallicRoughness.jpeg"
    },
    {
      "uri": "textures/FRAME_emissive.jpeg"
    },
    {
      "uri": "textures/FRAME_normal.png"
    }
  ],
  "materials": [
    {
      "alphaMode": "BLEND",
      "doubleSided": true,
      "emissiveFactor": [
        1.0,
        1.0,
        1.0
      ],
      "emissiveTexture": {
        "index": 2
      },
      "name": "doors",
      "normalTexture": {
        "index": 3
      },
      "occlusionTexture": {
        "index": 1
      },
      "pbrMetallicRoughness": {
        "baseColorTexture": {
          "index": 0
        },
        "metallicRoughnessTexture": {
          "index": 1
        }
      }
    },
    {
      "alphaMode": "BLEND",
      "doubleSided": true,
      "emissiveFactor": [
        1.0,
        1.0,
        1.0
      ],
      "emissiveTexture": {
        "index": 6
      },
      "name": "FRAME",
      "normalTexture": {
        "index": 7
      },
      "occlusionTexture": {
        "index": 5
      },
      "pbrMetallicRoughness": {
        "baseColorTexture": {
          "index": 4
        },
        "metallicRoughnessTexture": {
          "index": 5
        }
      }
    }
  ],
  "meshes": [
    {
      "name": "defaultMaterial",
      "primitives": [
        {
          "attributes": {
            "NORMAL": 1,
            "POSITION": 0,
            "TANGENT": 2,
            "TEXCOORD_0": 3
          },
          "indices": 4,
          "material": 0,
          "mode": 4
        }
      ]
    },
    {
      "name": "defaultMaterial",
      "primitives": [
        {
          "attributes": {
            "NORMAL": 6,
            "POSITION": 5,
            "TANGENT": 7,
            "TEXCOORD_0": 8
          },
          "indices": 9,
          "material": 1,
          "mode": 4
        }
      ]
    },
    {
      "name": "defaultMaterial",
      "primitives": [
        {
          "attributes": {
            "NORMAL": 11,
            "POSITION": 10,
            "TANGENT": 12,
            "TEXCOORD_0": 13
          },
          "indices": 14,
          "material": 0,
          "mode": 4
        }
      ]
    }
  ],
  "nodes": [
    {
      "children": [
        1
      ],
      "matrix": [
        1.0,
        0.0,
        0.0,
        0.0,
        0.0,
        2.220446049250313e-16,
        -1.0,
        0.0,
        0.0,
        1.0,
        2.220446049250313e-16,
        0.0,
        0.0,
        0.0,
        0.0,
        1.0
      ],
      "name": "Sketchfab_model"
    },
    {
      "children": [
        2,
        4,
        6
      ],
      "matrix": [
        1.0,
        0.0,
        0.0,
        0.0,
        0.0,
        -4.371139006309477e-08,
        0.999999999999999,
        0.0,
        0.0,
        -0.999999999999999,
        -4.371139006309477e-08,
        0.0,
        0.0,
        0.0,
        0.0,
        1.0
      ],
      "name": "Collada visual scene group"
    },
    {
      "children": [
        3
      ],
      "matrix": [
        -1.0,
        0.0,
        0.0,
        0.0,
        0.0,
        1.0,
        0.0,
        0.0,
        0.0,
        0.0,
        -1.0,
        0.0,
        0.0,
        0.0,
        7.069244,
        1.0
      ],
      "name": "Low_L"
    },
    {
      "mesh": 0,
      "name": "defaultMaterial"
    },
    {
      "children": [
        5
      ],
      "name": "LOW_Frame_Preoritet"
    },
    {
      "mesh": 1,
      "name": "defaultMaterial"
    },
    {
      "children": [
        7
      ],
      "matrix": [
        1.0,
        0.0,
        0.0,
        0.0,
        0.0,
        1.0,
        0.0,
        0.0,
        0.0,
        0.0,
        1.0,
        0.0,
        0.0,
        0.0,
        -7.069244,
        1.0
      ],
      "name": "Low_R"
    },
    {
      "mesh": 2,
      "name": "defaultMaterial"
    }
  ],
  "samplers": [
    {
      "magFilter": 9729,
      "minFilter": 9987,
      "wrapS": 10497,
      "wrapT": 10497
    }
  ],
  "scene": 0,
  "scenes": [
    {
      "name": "Sketchfab_Scene",
      "nodes": [
        0
      ]
    }
  ],
  "textures": [
    {
      "sampler": 0,
      "source": 0
    },
    {
      "sampler": 0,
      "source": 1
    },
    {
      "sampler": 0,
      "source": 2
    },
    {
      "sampler": 0,
      "source": 3
    },
    {
      "sampler": 0,
      "source": 4
    },
    {
      "sampler": 0,
      "source": 5
    },
    {
      "sampler": 0,
      "source": 6
    },
    {
      "sampler": 0,
      "source": 7
    }
  ]
}
