{
  "accessors": [
    {
      "bufferView": 2,
      "componentType": 5126,
      "count": 2152,
      "max": [
        0.5984920263290405,
        0.5984925031661987,
        0.8766347765922546
      ],
      "min": [
        -0.5984923243522644,
        -0.5984917283058167,
        0.0
      ],
      "type": "VEC3"
    },
    {
      "bufferView": 2,
      "byteOffset": 25824,
      "componentType": 5126,
      "count": 2152,
      "type": "VEC3"
    },
    {
      "bufferView": 1,
      "componentType": 5126,
      "count": 2152,
      "type": "VEC2"
    },
    {
      "bufferView": 0,
      "componentType": 5125,
      "count": 11232,
      "type": "SCALAR"
    },
    {
      "bufferView": 2,
      "byteOffset": 51648,
      "componentType": 5126,
      "count": 1946,
      "max": [
        0.5474417805671692,
        0.5474423170089722,
        0.45039188861846924
      ],
      "min": [
        -0.5474420785903931,
        -0.5474416017532349,
        -0.0029723639599978924
      ],
      "type": "VEC3"
    },
    {
      "bufferView": 2,
      "byteOffset": 75000,
      "componentType": 5126,
      "count": 1946,
      "type": "VEC3"
    },
    {
      "bufferView": 1,
      "byteOffset": 17216,
      "componentType": 5126,
      "count": 1946,
      "type": "VEC2"
    },
    {
      "bufferView": 0,
      "byteOffset": 44928,
      "componentType": 5125,
      "count": 10752,
      "type": "SCALAR"
    },
    {
      "bufferView": 2,
      "byteOffset": 98352,
      "componentType": 5126,
      "count": 8450,
      "max": [
        0.16655440628528595,
        0.24381940066814423,
        0.8579779863357544
      ],
      "min": [
        -0.3304462134838104,
        -0.24428530037403107,
        0.43984121084213257
      ],
      "type": "VEC3"
    },
    {
      "bufferView": 2,
      "byteOffset": 199752,
      "componentType": 5126,
      "count": 8450,
      "type": "VEC3"
    },
    {
      "bufferView": 1,
      "byteOffset": 32784,
      "componentType": 5126,
      "count": 8450,
      "type": "VEC2"
    },
    {
      "bufferView": 1,
      "byteOffset": 100384,
      "componentType": 5126,
      "count": 8450,
      "type": "VEC2"
    },
    {
      "bufferView": 0,
      "byteOffset": 87936,
      "componentType": 5125,
      "count": 49152,
      "type": "SCALAR"
    },
    {
      "bufferView": 2,
      "byteOffset": 301152,
      "componentType": 5126,
      "count": 8450,
      "max": [
        0.5971859097480774,
        0.5958085060119629,
        1.0162290334701538
      ],
      "min": [
        -0.19370929896831512,
        -0.2242823988199234,
        0.41345730423927307
      ],
      "type": "VEC3"
    },
    {
      "bufferView": 2,
      "byteOffset": 402552,
      "componentType": 5126,
      "count": 8450,
      "type": "VEC3"
    },
    {
      "bufferView": 1,
      "byteOffset": 167984,
      "componentType": 5126,
      "count": 8450,
      "type": "VEC2"
    },
    {
      "bufferView": 1,
      "byteOffset": 235584,
      "componentType": 5126,
      "count": 8450,
      "type": "VEC2"
    },
    {
      "bufferView": 0,
      "byteOffset": 284544,
      "componentType": 5125,
      "count": 49152,
      "type": "SCALAR"
    }
  ],
  "asset": {
    "generator": "fab-model-conversion",
    "version": "2.0"
  },
  "bufferViews": [
    {
      "buffer": 0,
      "byteLength": 481152,
      "target": 34963
    },
    {
      "buffer": 0,
      "byteLength": 303184,
      "byteOffset": 481152,
      "byteStride": 8,
      "target": 34962
    },
    {
      "buffer": 0,
      "byteLength": 503952,
      "byteOffset": 784336,
      "byteStride": 12,
      "target": 34962
    }
  ],
  "buffers": [
    {
      "byteLength": 1288288,
      "uri": "scene.bin"
    }
  ],
  "materials": [
    {
      "doubleSided": true,
      "name": "Pillow_01",
      "pbrMetallicRoughness": {
        "metallicFactor": 0.0,
        "roughnessFactor": 0.6
      }
    },
    {
      "doubleSided": true,
      "name": "Pillow_02",
      "pbrMetallicRoughness": {
        "metallicFactor": 0.0,
        "roughnessFactor": 0.6
      }
    },
    {
      "doubleSided": true,
      "name": "Chair",
      "pbrMetallicRoughness": {
        "baseColorFactor": [
          0.930219,
          0.930219,
          0.930219,
          1.0
        ],
        "metallicFactor": 0.0,
        "roughnessFactor": 0.6
      }
    }
  ],
  "meshes": [
    {
      "name": "Chair-material",
      "primitives": [
        {
          "attributes": {
            "NORMAL": 1,
            "POSITION": 0,
            "TEXCOORD_0": 2
          },
          "indices": 3,
          "material": 2,
          "mode": 4
        }
      ]
    },
    {
      "name": "Chair-material",
      "primitives": [
        {
          "attributes": {
            "NORMAL": 5,
            "POSITION": 4,
            "TEXCOORD_0": 6
          },
          "indices": 7,
          "material": 2,
          "mode": 4
        }
      ]
    },
    {
      "name": "Pillow_02-material",
      "primitives": [
        {
          "attributes": {
            "NORMAL": 9,
            "POSITION": 8,
            "TEXCOORD_0": 10,
            "TEXCOORD_1": 11
          },
          "indices": 12,
          "material": 1,
          "mode": 4
        }
      ]
    },
    {
      "name": "Pillow_01-material",
      "primitives": [
        {
          "attributes": {
            "NORMAL": 14,
            "POSITION": 13,
            "TEXCOORD_0": 15,
            "TEXCOORD_1": 16
          },
          "indices": 17,
          "material": 0,
          "mode": 4
        }
      ]
    }
  ],
  "nodes": [
    {
      "children": [
        1
      ],
      "matrix": [
        1.0,
        0.0,
        0.0,
        0.0,
        0.0,
        2.220446049250313e-16,
        -1.0,
        0.0,
        0.0,
        1.0,
        2.220446049250313e-16,
        0.0,
        0.0,
        0.0,
        0.0,
        1.0
      ],
      "name": "Sketchfab_model"
    },
    {
      "children": [
        2,
        4,
        6,
        8
      ],
      "name": "Collada visual scene group"
    },
    {
      "children": [
        3
      ],
      "name": "iron"
    },
    {
      "mesh": 0,
      "name": "Chair-material"
    },
    {
      "children": [
        5
      ],
      "name": "Chair"
    },
    {
      "mesh": 1,
      "name": "Chair-material"
    },
    {
      "children": [
        7
      ],
      "name": "Pillow_02"
    },
    {
      "mesh": 2,
      "name": "Pillow_02-material"
    },
    {
      "children": [
        9
      ],
      "name": "Pillow_01"
    },
    {
      "mesh": 3,
      "name": "Pillow_01-material"
    }
  ],
  "scene": 0,
  "scenes": [
    {
      "name": "Sketchfab_Scene",
      "nodes": [
        0
      ]
    }
  ]
}
